<!DOCTYPE svg PUBLIC "-//W3C//DTD SVG 1.1//EN" "http://www.w3.org/Graphics/SVG/1.1/DTD/svg11.dtd">
<svg xmlns="http://www.w3.org/2000/svg" viewBox="0 0 500 500">
<path d="M339.5 186.989c-3.3.986-11.3 3.033-17.779 4.549l-11.778 2.757 4.053 1.815 4.054 1.814-.275 54.958-.275 54.958-2.387 2.54-2.386 2.54 20.886.29c23.073.32 22.701.346 19.071-1.308-1.416-.645-2.936-1.899-3.379-2.787-.443-.888-1.03-29.028-1.305-62.532-.323-39.375-.854-61-1.5-61.151-.55-.129-3.7.572-7 1.557m58 2.928c-19.537 4.829-18.604 4.384-13.957 6.652l3.957 1.931V252c0 57.4-.048 57.969-5.063 60.471-1.478.737 4.231 1.029 20.09 1.029 19.451 0 21.809-.167 19.328-1.368-4.689-2.27-4.843-4.419-4.849-67.382L417 186l-2.25.105c-1.238.058-9 1.773-17.25 3.812m-139.499-1.794c-8.7 3.47-12.343 13.365-8.032 21.816 5.684 11.142 21.94 10.591 27.825-.943 6.247-12.246-6.834-26.04-19.793-20.873m-57.318 17.24c-2.908 13.761-9.945 20.313-23.745 22.109l-4.562.594.062 36.217c.069 40.396.077 40.45 6.948 46.483 6.691 5.874 21.545 4.457 33.006-3.15 6.541-4.342 8.157-6.323 3.251-3.983-3.124 1.49-9.017 1.026-12.87-1.013-.125-.066-.462-22.845-.75-50.62-.311-29.994-.855-48.931-1.34-46.637M90.842 229.375c-18.219 7.493-25.448 17.701-21.812 30.794 2.546 9.165 13.354 16.895 36.857 26.358 13.563 5.462 20.457 9.378 22.183 12.604 1.43 2.672-1.748 9.682-5.471 12.068l-3.099 1.985 4.333-.617c17.381-2.476 29.078-18.043 24.748-32.936-2.99-10.285-10.656-15.854-32.601-23.682C96.597 249.035 91 245.309 91 239.321c0-2.902 4.149-8.349 7.848-10.303l3.652-1.93-3-.02c-1.65-.011-5.546 1.027-8.658 2.307m32.113.238c5.512 2.605 10.773 8.029 14.887 15.348l3.07 5.461-.594-10.961c-.326-6.029-.644-11.024-.706-11.101-.061-.078-4.857-.311-10.657-.518l-10.546-.377 4.546 2.148m146.17.002c-4.057 1.33-11.257 3.093-16 3.918-12.543 2.181-13.122 2.429-9.37 4.006 5.314 2.234 5.4 2.873 5.033 37.263-.356 33.398-.486 34.422-4.657 36.688-2.347 1.275-.2 1.43 19.869 1.431 20.027.001 22.15-.151 19.318-1.383-5.001-2.176-5.306-4.862-5.312-46.788-.003-20.762-.343-37.706-.756-37.651-.413.054-4.069 1.186-8.125 2.516M68.359 289.5c.34 2.2.624 8.387.63 13.75L69 313l13.75-.056 13.75-.056-6.179-1.959c-7.333-2.324-16.088-11.014-18.956-18.816-2.34-6.366-3.781-7.619-3.006-2.613" fill-rule="evenodd"/>
</svg>